<svg width="651" height="211" viewBox="0 0 651 211" fill="none" xmlns="http://www.w3.org/2000/svg">
<path d="M252 40C282.885 34.5957 314.965 34.9422 346.719 33.746C376.448 32.6261 405.622 30.705 435.536 30.705C462.572 30.705 489.607 30.705 516.643 30.705C533.138 30.705 553.216 28.5668 569 31.7378" stroke="#0748D3" stroke-width="60" stroke-linecap="round"/>
<path opacity="0.5" d="M36 108C36.682 102.596 37.3904 102.942 38.0916 101.746C38.7481 100.626 39.3923 98.705 40.0529 98.705C40.6498 98.705 41.2468 98.705 41.8438 98.705C42.2081 98.705 42.6515 96.5668 43 99.7378" stroke="#9BFFB1" stroke-width="60" stroke-linecap="round"/>
<path opacity="0.5" d="M31 180C31.682 174.596 32.3904 174.942 33.0916 173.746C33.7481 172.626 34.3923 170.705 35.0529 170.705C35.6498 170.705 36.2468 170.705 36.8438 170.705C37.2081 170.705 37.6515 168.567 38 171.738" stroke="#9BFFB1" stroke-width="60" stroke-linecap="round"/>
<path d="M252 50C282.885 44.5957 314.965 44.9422 346.719 43.746C376.448 42.6261 405.622 40.705 435.536 40.705C462.572 40.705 489.607 40.705 516.643 40.705C533.138 40.705 553.216 38.5668 569 41.7378" stroke="#0748D3" stroke-opacity="0.3" stroke-width="60" stroke-linecap="round"/>
<path d="M43.5455 30.4375C43.267 29.4697 42.8759 28.6146 42.3722 27.8722C41.8684 27.1165 41.2519 26.4801 40.5227 25.9631C39.8068 25.4328 38.9848 25.0284 38.0568 24.75C37.142 24.4716 36.1278 24.3324 35.0142 24.3324C32.9328 24.3324 31.1032 24.8494 29.5256 25.8835C27.9612 26.9176 26.7415 28.4223 25.8665 30.3977C24.9915 32.3598 24.554 34.7595 24.554 37.5966C24.554 40.4337 24.9848 42.8466 25.8466 44.8352C26.7083 46.8239 27.928 48.3419 29.5057 49.3892C31.0833 50.4233 32.946 50.9403 35.0938 50.9403C37.0426 50.9403 38.7064 50.5956 40.0852 49.9062C41.4773 49.2036 42.5379 48.2159 43.267 46.9432C44.0095 45.6705 44.3807 44.1657 44.3807 42.429L46.1307 42.6875H35.6307V36.2045H52.6733V41.3352C52.6733 44.9148 51.9176 47.9905 50.4062 50.5625C48.8949 53.1212 46.8134 55.0966 44.1619 56.4886C41.5104 57.8674 38.4744 58.5568 35.054 58.5568C31.2358 58.5568 27.8816 57.715 24.9915 56.0312C22.1013 54.3343 19.8475 51.928 18.2301 48.8125C16.6259 45.6837 15.8239 41.9716 15.8239 37.6761C15.8239 34.375 16.3011 31.4318 17.2557 28.8466C18.2235 26.2481 19.5758 24.0473 21.3125 22.2443C23.0492 20.4413 25.071 19.0691 27.3778 18.1278C29.6847 17.1866 32.1837 16.7159 34.875 16.7159C37.1818 16.7159 39.3295 17.054 41.3182 17.7301C43.3068 18.393 45.0701 19.3343 46.608 20.554C48.1591 21.7737 49.4252 23.2254 50.4062 24.9091C51.3873 26.5795 52.017 28.4223 52.2955 30.4375H43.5455ZM72.9027 58.5966C69.7607 58.5966 67.0561 57.9602 64.7891 56.6875C62.5353 55.4015 60.7985 53.5852 59.5788 51.2386C58.3591 48.8788 57.7493 46.0881 57.7493 42.8665C57.7493 39.7244 58.3591 36.9669 59.5788 34.5938C60.7985 32.2206 62.5154 30.3712 64.7294 29.0455C66.9567 27.7197 69.5684 27.0568 72.5646 27.0568C74.5798 27.0568 76.4557 27.3816 78.1925 28.0312C79.9425 28.6676 81.4671 29.6288 82.7663 30.9148C84.0788 32.2008 85.0997 33.8182 85.8288 35.767C86.558 37.7027 86.9226 39.9697 86.9226 42.5682V44.8949H61.13V39.6449H78.9482C78.9482 38.4252 78.683 37.3447 78.1527 36.4034C77.6224 35.4621 76.8866 34.7263 75.9453 34.196C75.0173 33.6525 73.9368 33.3807 72.7038 33.3807C71.4179 33.3807 70.2777 33.679 69.2834 34.2756C68.3023 34.8589 67.5334 35.6477 66.9766 36.642C66.4197 37.6231 66.1347 38.7169 66.1214 39.9233V44.9148C66.1214 46.4261 66.3999 47.732 66.9567 48.8324C67.5268 49.9328 68.3288 50.7812 69.3629 51.3778C70.397 51.9744 71.6233 52.2727 73.0419 52.2727C73.9832 52.2727 74.8449 52.1402 75.6271 51.875C76.4093 51.6098 77.0788 51.2121 77.6357 50.6818C78.1925 50.1515 78.6167 49.5019 78.9084 48.733L86.7436 49.25C86.3459 51.1326 85.5305 52.7765 84.2976 54.1818C83.0779 55.5739 81.5002 56.661 79.5646 57.4432C77.6423 58.2121 75.4216 58.5966 72.9027 58.5966ZM108.698 27.4545V33.8182H90.3033V27.4545H108.698ZM94.4794 20.1364H102.951V48.6136C102.951 49.3958 103.07 50.0057 103.309 50.4432C103.548 50.8674 103.879 51.1657 104.303 51.3381C104.741 51.5104 105.245 51.5966 105.815 51.5966C106.212 51.5966 106.61 51.5634 107.008 51.4972C107.406 51.4176 107.71 51.358 107.923 51.3182L109.255 57.6222C108.831 57.7547 108.234 57.9072 107.465 58.0795C106.696 58.2652 105.762 58.3778 104.661 58.4176C102.62 58.4972 100.83 58.2254 99.2919 57.6023C97.7673 56.9792 96.5807 56.0114 95.7322 54.6989C94.8838 53.3864 94.4661 51.7292 94.4794 49.7273V20.1364ZM143.425 27.4545V33.8182H125.03V27.4545H143.425ZM129.206 20.1364H137.678V48.6136C137.678 49.3958 137.797 50.0057 138.036 50.4432C138.274 50.8674 138.606 51.1657 139.03 51.3381C139.467 51.5104 139.971 51.5966 140.541 51.5966C140.939 51.5966 141.337 51.5634 141.734 51.4972C142.132 51.4176 142.437 51.358 142.649 51.3182L143.982 57.6222C143.557 57.7547 142.961 57.9072 142.192 58.0795C141.423 58.2652 140.488 58.3778 139.388 58.4176C137.346 58.4972 135.556 58.2254 134.018 57.6023C132.494 56.9792 131.307 56.0114 130.459 54.6989C129.61 53.3864 129.193 51.7292 129.206 49.7273V20.1364ZM158.071 40.3409V58H149.599V17.2727H157.832V32.8438H158.19C158.88 31.0407 159.993 29.6288 161.531 28.608C163.069 27.5739 164.998 27.0568 167.318 27.0568C169.439 27.0568 171.289 27.5208 172.866 28.4489C174.457 29.3636 175.69 30.6828 176.565 32.4062C177.454 34.1165 177.891 36.1648 177.878 38.5511V58H169.406V40.0625C169.42 38.1799 168.942 36.715 167.974 35.6676C167.02 34.6203 165.681 34.0966 163.957 34.0966C162.804 34.0966 161.783 34.3419 160.895 34.8324C160.02 35.3229 159.33 36.0388 158.827 36.9801C158.336 37.9081 158.084 39.0284 158.071 40.3409ZM198.465 58.5966C195.323 58.5966 192.619 57.9602 190.352 56.6875C188.098 55.4015 186.361 53.5852 185.141 51.2386C183.922 48.8788 183.312 46.0881 183.312 42.8665C183.312 39.7244 183.922 36.9669 185.141 34.5938C186.361 32.2206 188.078 30.3712 190.292 29.0455C192.519 27.7197 195.131 27.0568 198.127 27.0568C200.142 27.0568 202.018 27.3816 203.755 28.0312C205.505 28.6676 207.03 29.6288 208.329 30.9148C209.641 32.2008 210.662 33.8182 211.391 35.767C212.121 37.7027 212.485 39.9697 212.485 42.5682V44.8949H186.692V39.6449H204.511C204.511 38.4252 204.246 37.3447 203.715 36.4034C203.185 35.4621 202.449 34.7263 201.508 34.196C200.58 33.6525 199.499 33.3807 198.266 33.3807C196.98 33.3807 195.84 33.679 194.846 34.2756C193.865 34.8589 193.096 35.6477 192.539 36.642C191.982 37.6231 191.697 38.7169 191.684 39.9233V44.9148C191.684 46.4261 191.962 47.732 192.519 48.8324C193.089 49.9328 193.891 50.7812 194.925 51.3778C195.96 51.9744 197.186 52.2727 198.604 52.2727C199.546 52.2727 200.407 52.1402 201.19 51.875C201.972 51.6098 202.641 51.2121 203.198 50.6818C203.755 50.1515 204.179 49.5019 204.471 48.733L212.306 49.25C211.908 51.1326 211.093 52.7765 209.86 54.1818C208.64 55.5739 207.063 56.661 205.127 57.4432C203.205 58.2121 200.984 58.5966 198.465 58.5966ZM608.721 52.4318L608.502 54.6193C608.33 56.3693 607.998 58.1127 607.508 59.8494C607.031 61.5994 606.527 63.1837 605.996 64.6023C605.479 66.0208 605.062 67.1345 604.744 67.9432H599.255C599.454 67.161 599.726 66.0672 600.07 64.6619C600.415 63.2699 600.74 61.7055 601.045 59.9688C601.35 58.232 601.542 56.4621 601.621 54.6591L601.721 52.4318H608.721ZM52.4744 99.5312H43.7642C43.6051 98.4044 43.2803 97.4034 42.7898 96.5284C42.2992 95.6401 41.6695 94.8845 40.9006 94.2614C40.1316 93.6383 39.2434 93.161 38.2358 92.8295C37.2415 92.4981 36.161 92.3324 34.9943 92.3324C32.8864 92.3324 31.0502 92.8561 29.4858 93.9034C27.9214 94.9375 26.7083 96.4489 25.8466 98.4375C24.9848 100.413 24.554 102.812 24.554 105.636C24.554 108.54 24.9848 110.979 25.8466 112.955C26.7216 114.93 27.9413 116.421 29.5057 117.429C31.0701 118.437 32.8797 118.94 34.9347 118.94C36.0881 118.94 37.1553 118.788 38.1364 118.483C39.1307 118.178 40.0123 117.734 40.7812 117.151C41.5502 116.554 42.1866 115.831 42.6903 114.983C43.2074 114.134 43.5653 113.167 43.7642 112.08L52.4744 112.119C52.2491 113.989 51.6856 115.792 50.7841 117.528C49.8958 119.252 48.696 120.796 47.1847 122.162C45.6866 123.514 43.8968 124.588 41.8153 125.384C39.7472 126.166 37.4072 126.557 34.7955 126.557C31.1629 126.557 27.9148 125.735 25.0511 124.091C22.2008 122.447 19.947 120.067 18.2898 116.952C16.6458 113.836 15.8239 110.064 15.8239 105.636C15.8239 101.195 16.6591 97.4167 18.3295 94.3011C20 91.1856 22.267 88.8125 25.1307 87.1818C27.9943 85.5379 31.2159 84.7159 34.7955 84.7159C37.1553 84.7159 39.3428 85.0473 41.358 85.7102C43.3864 86.3731 45.1828 87.3409 46.7472 88.6136C48.3116 89.8731 49.5843 91.4176 50.5653 93.2472C51.5597 95.0767 52.196 97.1714 52.4744 99.5312ZM72.2912 126.597C69.2022 126.597 66.5308 125.94 64.277 124.628C62.0365 123.302 60.3063 121.459 59.0866 119.099C57.867 116.726 57.2571 113.975 57.2571 110.847C57.2571 107.691 57.867 104.934 59.0866 102.574C60.3063 100.201 62.0365 98.358 64.277 97.0455C66.5308 95.7197 69.2022 95.0568 72.2912 95.0568C75.3802 95.0568 78.045 95.7197 80.2855 97.0455C82.5393 98.358 84.276 100.201 85.4957 102.574C86.7154 104.934 87.3253 107.691 87.3253 110.847C87.3253 113.975 86.7154 116.726 85.4957 119.099C84.276 121.459 82.5393 123.302 80.2855 124.628C78.045 125.94 75.3802 126.597 72.2912 126.597ZM72.331 120.034C73.7363 120.034 74.9096 119.636 75.8509 118.841C76.7921 118.032 77.5014 116.932 77.9787 115.54C78.4692 114.148 78.7145 112.563 78.7145 110.787C78.7145 109.01 78.4692 107.426 77.9787 106.034C77.5014 104.642 76.7921 103.542 75.8509 102.733C74.9096 101.924 73.7363 101.52 72.331 101.52C70.9124 101.52 69.7192 101.924 68.7514 102.733C67.7969 103.542 67.0743 104.642 66.5838 106.034C66.1065 107.426 65.8679 109.01 65.8679 110.787C65.8679 112.563 66.1065 114.148 66.5838 115.54C67.0743 116.932 67.7969 118.032 68.7514 118.841C69.7192 119.636 70.9124 120.034 72.331 120.034ZM101.305 108.341V126H92.8338V95.4545H100.908V100.844H101.266C101.942 99.0672 103.075 97.6619 104.666 96.6278C106.257 95.5805 108.186 95.0568 110.453 95.0568C112.574 95.0568 114.424 95.5208 116.001 96.4489C117.579 97.3769 118.805 98.7027 119.68 100.426C120.555 102.136 120.993 104.178 120.993 106.551V126H112.521V108.062C112.535 106.193 112.057 104.735 111.089 103.688C110.122 102.627 108.789 102.097 107.092 102.097C105.952 102.097 104.945 102.342 104.07 102.832C103.208 103.323 102.532 104.039 102.041 104.98C101.564 105.908 101.319 107.028 101.305 108.341ZM155.053 95.4545L144.374 126H134.829L124.15 95.4545H133.099L139.442 117.31H139.761L146.085 95.4545H155.053ZM172.325 126.597C169.183 126.597 166.478 125.96 164.211 124.688C161.957 123.402 160.22 121.585 159.001 119.239C157.781 116.879 157.171 114.088 157.171 110.866C157.171 107.724 157.781 104.967 159.001 102.594C160.22 100.221 161.937 98.3712 164.151 97.0455C166.379 95.7197 168.99 95.0568 171.987 95.0568C174.002 95.0568 175.878 95.3816 177.614 96.0312C179.364 96.6676 180.889 97.6288 182.188 98.9148C183.501 100.201 184.522 101.818 185.251 103.767C185.98 105.703 186.344 107.97 186.344 110.568V112.895H160.552V107.645H178.37C178.37 106.425 178.105 105.345 177.575 104.403C177.044 103.462 176.308 102.726 175.367 102.196C174.439 101.652 173.359 101.381 172.126 101.381C170.84 101.381 169.7 101.679 168.705 102.276C167.724 102.859 166.955 103.648 166.398 104.642C165.842 105.623 165.557 106.717 165.543 107.923V112.915C165.543 114.426 165.822 115.732 166.379 116.832C166.949 117.933 167.751 118.781 168.785 119.378C169.819 119.974 171.045 120.273 172.464 120.273C173.405 120.273 174.267 120.14 175.049 119.875C175.831 119.61 176.501 119.212 177.058 118.682C177.614 118.152 178.039 117.502 178.33 116.733L186.165 117.25C185.768 119.133 184.952 120.777 183.719 122.182C182.5 123.574 180.922 124.661 178.987 125.443C177.064 126.212 174.844 126.597 172.325 126.597ZM191.873 126V95.4545H200.086V100.784H200.404C200.961 98.8883 201.896 97.4564 203.208 96.4886C204.521 95.5076 206.032 95.017 207.742 95.017C208.166 95.017 208.624 95.0436 209.114 95.0966C209.605 95.1496 210.036 95.2225 210.407 95.3153V102.832C210.009 102.713 209.459 102.607 208.756 102.514C208.054 102.421 207.411 102.375 206.827 102.375C205.581 102.375 204.468 102.647 203.487 103.19C202.519 103.721 201.75 104.463 201.18 105.418C200.623 106.372 200.344 107.473 200.344 108.719V126H191.873ZM240.202 104.165L232.446 104.642C232.313 103.979 232.028 103.383 231.591 102.852C231.153 102.309 230.577 101.878 229.861 101.56C229.158 101.228 228.316 101.062 227.335 101.062C226.023 101.062 224.916 101.341 224.014 101.898C223.113 102.441 222.662 103.17 222.662 104.085C222.662 104.814 222.954 105.431 223.537 105.935C224.12 106.438 225.121 106.843 226.54 107.148L232.068 108.261C235.038 108.871 237.252 109.852 238.71 111.205C240.169 112.557 240.898 114.333 240.898 116.534C240.898 118.536 240.308 120.293 239.128 121.804C237.961 123.315 236.357 124.495 234.315 125.344C232.287 126.179 229.947 126.597 227.295 126.597C223.252 126.597 220.03 125.755 217.631 124.071C215.244 122.374 213.846 120.067 213.435 117.151L221.767 116.713C222.019 117.946 222.629 118.887 223.597 119.537C224.564 120.173 225.804 120.491 227.315 120.491C228.8 120.491 229.993 120.206 230.895 119.636C231.81 119.053 232.274 118.304 232.287 117.389C232.274 116.62 231.949 115.991 231.312 115.5C230.676 114.996 229.695 114.612 228.369 114.347L223.08 113.293C220.097 112.696 217.876 111.662 216.418 110.19C214.973 108.719 214.25 106.843 214.25 104.562C214.25 102.6 214.78 100.91 215.841 99.4915C216.915 98.0729 218.42 96.9792 220.355 96.2102C222.304 95.4413 224.584 95.0568 227.196 95.0568C231.054 95.0568 234.09 95.8722 236.304 97.5028C238.531 99.1335 239.83 101.354 240.202 104.165ZM246.232 126V95.4545H254.704V126H246.232ZM250.488 91.517C249.228 91.517 248.148 91.0994 247.246 90.2642C246.358 89.4157 245.914 88.4015 245.914 87.2216C245.914 86.0549 246.358 85.054 247.246 84.2188C248.148 83.3703 249.228 82.946 250.488 82.946C251.747 82.946 252.821 83.3703 253.71 84.2188C254.611 85.054 255.062 86.0549 255.062 87.2216C255.062 88.4015 254.611 89.4157 253.71 90.2642C252.821 91.0994 251.747 91.517 250.488 91.517ZM275.291 126.597C272.202 126.597 269.531 125.94 267.277 124.628C265.036 123.302 263.306 121.459 262.087 119.099C260.867 116.726 260.257 113.975 260.257 110.847C260.257 107.691 260.867 104.934 262.087 102.574C263.306 100.201 265.036 98.358 267.277 97.0455C269.531 95.7197 272.202 95.0568 275.291 95.0568C278.38 95.0568 281.045 95.7197 283.286 97.0455C285.539 98.358 287.276 100.201 288.496 102.574C289.715 104.934 290.325 107.691 290.325 110.847C290.325 113.975 289.715 116.726 288.496 119.099C287.276 121.459 285.539 123.302 283.286 124.628C281.045 125.94 278.38 126.597 275.291 126.597ZM275.331 120.034C276.736 120.034 277.91 119.636 278.851 118.841C279.792 118.032 280.501 116.932 280.979 115.54C281.469 114.148 281.714 112.563 281.714 110.787C281.714 109.01 281.469 107.426 280.979 106.034C280.501 104.642 279.792 103.542 278.851 102.733C277.91 101.924 276.736 101.52 275.331 101.52C273.912 101.52 272.719 101.924 271.751 102.733C270.797 103.542 270.074 104.642 269.584 106.034C269.107 107.426 268.868 109.01 268.868 110.787C268.868 112.563 269.107 114.148 269.584 115.54C270.074 116.932 270.797 118.032 271.751 118.841C272.719 119.636 273.912 120.034 275.331 120.034ZM304.305 108.341V126H295.834V95.4545H303.908V100.844H304.266C304.942 99.0672 306.075 97.6619 307.666 96.6278C309.257 95.5805 311.186 95.0568 313.453 95.0568C315.574 95.0568 317.424 95.5208 319.001 96.4489C320.579 97.3769 321.805 98.7027 322.68 100.426C323.555 102.136 323.993 104.178 323.993 106.551V126H315.521V108.062C315.535 106.193 315.057 104.735 314.089 103.688C313.122 102.627 311.789 102.097 310.092 102.097C308.952 102.097 307.945 102.342 307.07 102.832C306.208 103.323 305.532 104.039 305.041 104.98C304.564 105.908 304.319 107.028 304.305 108.341ZM339.877 120.432L339.658 122.619C339.486 124.369 339.155 126.113 338.664 127.849C338.187 129.599 337.683 131.184 337.153 132.602C336.636 134.021 336.218 135.134 335.9 135.943H330.411C330.61 135.161 330.882 134.067 331.227 132.662C331.571 131.27 331.896 129.705 332.201 127.969C332.506 126.232 332.698 124.462 332.778 122.659L332.877 120.432H339.877ZM371.158 126.597C368.348 126.597 365.922 126.093 363.88 125.085C361.838 124.078 360.267 122.712 359.167 120.989C358.08 119.252 357.536 117.316 357.536 115.182C357.536 113.591 357.854 112.179 358.491 110.946C359.127 109.713 360.015 108.58 361.156 107.545C362.296 106.498 363.621 105.457 365.133 104.423L373.028 99.233C374.049 98.5833 374.798 97.9006 375.275 97.1847C375.752 96.4555 375.991 95.6667 375.991 94.8182C375.991 94.0095 375.666 93.2604 375.016 92.571C374.367 91.8816 373.445 91.5436 372.252 91.5568C371.457 91.5568 370.767 91.7358 370.184 92.0938C369.601 92.4384 369.143 92.8958 368.812 93.4659C368.494 94.0227 368.335 94.6458 368.335 95.3352C368.335 96.1837 368.573 97.0455 369.05 97.9205C369.528 98.7955 370.164 99.7235 370.96 100.705C371.755 101.672 372.623 102.72 373.565 103.847L392.874 126H384.045L367.937 108.062C366.876 106.856 365.816 105.597 364.755 104.284C363.708 102.958 362.833 101.553 362.13 100.068C361.427 98.5701 361.076 96.946 361.076 95.196C361.076 93.2206 361.533 91.4441 362.448 89.8665C363.376 88.2888 364.675 87.0426 366.346 86.1278C368.016 85.1998 369.965 84.7358 372.192 84.7358C374.367 84.7358 376.243 85.1799 377.82 86.0682C379.411 86.9432 380.631 88.1098 381.479 89.5682C382.341 91.0133 382.772 92.6042 382.772 94.3409C382.772 96.2633 382.295 98.0066 381.34 99.571C380.399 101.122 379.073 102.514 377.363 103.747L369.05 109.733C367.924 110.555 367.088 111.397 366.545 112.259C366.014 113.107 365.749 113.922 365.749 114.705C365.749 115.672 365.988 116.541 366.465 117.31C366.942 118.079 367.619 118.688 368.494 119.139C369.369 119.577 370.396 119.795 371.576 119.795C373.008 119.795 374.42 119.471 375.812 118.821C377.217 118.158 378.49 117.223 379.63 116.017C380.783 114.797 381.705 113.352 382.394 111.682C383.084 110.011 383.428 108.162 383.428 106.134H390.448C390.448 108.626 390.176 110.873 389.633 112.875C389.089 114.864 388.334 116.6 387.366 118.085C386.398 119.557 385.291 120.763 384.045 121.705C383.647 121.956 383.263 122.195 382.891 122.42C382.52 122.646 382.136 122.884 381.738 123.136C380.227 124.356 378.536 125.238 376.667 125.781C374.811 126.325 372.975 126.597 371.158 126.597ZM16.5398 194V153.273H32.608C35.697 153.273 38.3286 153.863 40.5028 155.043C42.6771 156.209 44.3343 157.833 45.4744 159.915C46.6278 161.983 47.2045 164.369 47.2045 167.074C47.2045 169.778 46.6212 172.165 45.4545 174.233C44.2879 176.301 42.5975 177.912 40.3835 179.065C38.1828 180.219 35.518 180.795 32.3892 180.795H22.1477V173.895H30.9972C32.6544 173.895 34.0199 173.61 35.0938 173.04C36.1809 172.456 36.9896 171.654 37.5199 170.634C38.0634 169.599 38.3352 168.413 38.3352 167.074C38.3352 165.722 38.0634 164.542 37.5199 163.534C36.9896 162.513 36.1809 161.724 35.0938 161.168C34.0066 160.598 32.6278 160.312 30.9574 160.312H25.1506V194H16.5398ZM60.5284 194.577C58.5795 194.577 56.8428 194.239 55.3182 193.562C53.7936 192.873 52.5871 191.859 51.6989 190.52C50.8239 189.168 50.3864 187.484 50.3864 185.469C50.3864 183.772 50.6979 182.347 51.321 181.193C51.9441 180.04 52.7926 179.112 53.8665 178.409C54.9403 177.706 56.16 177.176 57.5256 176.818C58.9044 176.46 60.3494 176.208 61.8608 176.062C63.6373 175.877 65.0691 175.705 66.1562 175.545C67.2434 175.373 68.0322 175.121 68.5227 174.79C69.0133 174.458 69.2585 173.968 69.2585 173.318V173.199C69.2585 171.939 68.8608 170.965 68.0653 170.276C67.2831 169.586 66.1695 169.241 64.7244 169.241C63.1998 169.241 61.9867 169.58 61.0852 170.256C60.1837 170.919 59.5871 171.754 59.2955 172.761L51.4602 172.125C51.858 170.269 52.6402 168.665 53.8068 167.312C54.9735 165.947 56.4782 164.9 58.321 164.17C60.1771 163.428 62.3248 163.057 64.7642 163.057C66.4612 163.057 68.0852 163.256 69.6364 163.653C71.2008 164.051 72.5862 164.668 73.7926 165.503C75.0123 166.338 75.9735 167.412 76.6761 168.724C77.3788 170.024 77.7301 171.581 77.7301 173.398V194H69.696V189.764H69.4574C68.9669 190.719 68.3106 191.561 67.4886 192.29C66.6667 193.006 65.679 193.569 64.5256 193.98C63.3722 194.378 62.0398 194.577 60.5284 194.577ZM62.9545 188.73C64.2008 188.73 65.3011 188.485 66.2557 187.994C67.2102 187.491 67.9593 186.814 68.5028 185.966C69.0464 185.117 69.3182 184.156 69.3182 183.082V179.841C69.053 180.013 68.6884 180.172 68.2244 180.318C67.7737 180.451 67.2633 180.577 66.6932 180.696C66.1231 180.802 65.553 180.902 64.983 180.994C64.4129 181.074 63.8958 181.147 63.4318 181.213C62.4375 181.359 61.5691 181.591 60.8267 181.909C60.0843 182.227 59.5076 182.658 59.0966 183.202C58.6856 183.732 58.4801 184.395 58.4801 185.19C58.4801 186.344 58.8977 187.225 59.733 187.835C60.5814 188.432 61.6553 188.73 62.9545 188.73ZM88.4389 205.455C87.3651 205.455 86.3575 205.368 85.4162 205.196C84.4882 205.037 83.7192 204.831 83.1094 204.58L85.0185 198.256C86.0128 198.561 86.9077 198.726 87.7031 198.753C88.5118 198.779 89.2079 198.594 89.7912 198.196C90.3878 197.798 90.8717 197.122 91.2429 196.168L91.7401 194.875L80.7827 163.455H89.6918L96.0156 185.886H96.3338L102.717 163.455H111.686L99.8139 197.301C99.2438 198.945 98.4683 200.377 97.4872 201.597C96.5194 202.83 95.2931 203.777 93.8082 204.44C92.3234 205.116 90.5336 205.455 88.4389 205.455ZM116.021 194V163.455H124.095V168.844H124.453C125.089 167.054 126.15 165.642 127.635 164.608C129.12 163.574 130.896 163.057 132.964 163.057C135.059 163.057 136.842 163.58 138.314 164.628C139.786 165.662 140.767 167.067 141.257 168.844H141.575C142.198 167.094 143.325 165.695 144.956 164.648C146.6 163.587 148.542 163.057 150.783 163.057C153.633 163.057 155.946 163.965 157.723 165.781C159.513 167.584 160.408 170.143 160.408 173.457V194H151.956V175.128C151.956 173.431 151.505 172.158 150.604 171.31C149.702 170.461 148.575 170.037 147.223 170.037C145.685 170.037 144.485 170.527 143.624 171.509C142.762 172.476 142.331 173.756 142.331 175.347V194H134.118V174.949C134.118 173.451 133.687 172.258 132.825 171.369C131.977 170.481 130.857 170.037 129.464 170.037C128.523 170.037 127.675 170.276 126.919 170.753C126.177 171.217 125.587 171.873 125.149 172.722C124.712 173.557 124.493 174.538 124.493 175.665V194H116.021ZM181.02 194.597C177.878 194.597 175.173 193.96 172.906 192.688C170.652 191.402 168.916 189.585 167.696 187.239C166.476 184.879 165.866 182.088 165.866 178.866C165.866 175.724 166.476 172.967 167.696 170.594C168.916 168.221 170.633 166.371 172.847 165.045C175.074 163.72 177.686 163.057 180.682 163.057C182.697 163.057 184.573 163.382 186.31 164.031C188.06 164.668 189.584 165.629 190.884 166.915C192.196 168.201 193.217 169.818 193.946 171.767C194.675 173.703 195.04 175.97 195.04 178.568V180.895H169.247V175.645H187.065C187.065 174.425 186.8 173.345 186.27 172.403C185.74 171.462 185.004 170.726 184.062 170.196C183.134 169.652 182.054 169.381 180.821 169.381C179.535 169.381 178.395 169.679 177.401 170.276C176.42 170.859 175.651 171.648 175.094 172.642C174.537 173.623 174.252 174.717 174.239 175.923V180.915C174.239 182.426 174.517 183.732 175.074 184.832C175.644 185.933 176.446 186.781 177.48 187.378C178.514 187.974 179.741 188.273 181.159 188.273C182.1 188.273 182.962 188.14 183.744 187.875C184.527 187.61 185.196 187.212 185.753 186.682C186.31 186.152 186.734 185.502 187.026 184.733L194.861 185.25C194.463 187.133 193.648 188.777 192.415 190.182C191.195 191.574 189.617 192.661 187.682 193.443C185.759 194.212 183.539 194.597 181.02 194.597ZM209.04 176.341V194H200.568V163.455H208.642V168.844H209C209.676 167.067 210.81 165.662 212.401 164.628C213.991 163.58 215.92 163.057 218.188 163.057C220.309 163.057 222.158 163.521 223.736 164.449C225.313 165.377 226.54 166.703 227.415 168.426C228.29 170.136 228.727 172.178 228.727 174.551V194H220.256V176.062C220.269 174.193 219.792 172.735 218.824 171.688C217.856 170.627 216.524 170.097 214.827 170.097C213.687 170.097 212.679 170.342 211.804 170.832C210.942 171.323 210.266 172.039 209.776 172.98C209.298 173.908 209.053 175.028 209.04 176.341ZM251.651 163.455V169.818H233.256V163.455H251.651ZM237.433 156.136H245.904V184.614C245.904 185.396 246.023 186.006 246.262 186.443C246.501 186.867 246.832 187.166 247.256 187.338C247.694 187.51 248.198 187.597 248.768 187.597C249.165 187.597 249.563 187.563 249.961 187.497C250.359 187.418 250.664 187.358 250.876 187.318L252.208 193.622C251.784 193.755 251.187 193.907 250.418 194.08C249.649 194.265 248.715 194.378 247.614 194.418C245.573 194.497 243.783 194.225 242.245 193.602C240.72 192.979 239.534 192.011 238.685 190.699C237.837 189.386 237.419 187.729 237.433 185.727V156.136ZM282.202 172.165L274.446 172.642C274.313 171.979 274.028 171.383 273.591 170.852C273.153 170.309 272.577 169.878 271.861 169.56C271.158 169.228 270.316 169.062 269.335 169.062C268.023 169.062 266.916 169.341 266.014 169.898C265.113 170.441 264.662 171.17 264.662 172.085C264.662 172.814 264.954 173.431 265.537 173.935C266.12 174.438 267.121 174.843 268.54 175.148L274.068 176.261C277.038 176.871 279.252 177.852 280.71 179.205C282.169 180.557 282.898 182.333 282.898 184.534C282.898 186.536 282.308 188.293 281.128 189.804C279.961 191.315 278.357 192.495 276.315 193.344C274.287 194.179 271.947 194.597 269.295 194.597C265.252 194.597 262.03 193.755 259.631 192.071C257.244 190.374 255.846 188.067 255.435 185.151L263.767 184.713C264.019 185.946 264.629 186.887 265.597 187.537C266.564 188.173 267.804 188.491 269.315 188.491C270.8 188.491 271.993 188.206 272.895 187.636C273.81 187.053 274.274 186.304 274.287 185.389C274.274 184.62 273.949 183.991 273.312 183.5C272.676 182.996 271.695 182.612 270.369 182.347L265.08 181.293C262.097 180.696 259.876 179.662 258.418 178.19C256.973 176.719 256.25 174.843 256.25 172.562C256.25 170.6 256.78 168.91 257.841 167.491C258.915 166.073 260.42 164.979 262.355 164.21C264.304 163.441 266.584 163.057 269.196 163.057C273.054 163.057 276.09 163.872 278.304 165.503C280.531 167.134 281.83 169.354 282.202 172.165ZM309.903 194.577C307.955 194.577 306.218 194.239 304.693 193.562C303.169 192.873 301.962 191.859 301.074 190.52C300.199 189.168 299.761 187.484 299.761 185.469C299.761 183.772 300.073 182.347 300.696 181.193C301.319 180.04 302.168 179.112 303.241 178.409C304.315 177.706 305.535 177.176 306.901 176.818C308.279 176.46 309.724 176.208 311.236 176.062C313.012 175.877 314.444 175.705 315.531 175.545C316.618 175.373 317.407 175.121 317.898 174.79C318.388 174.458 318.634 173.968 318.634 173.318V173.199C318.634 171.939 318.236 170.965 317.44 170.276C316.658 169.586 315.545 169.241 314.099 169.241C312.575 169.241 311.362 169.58 310.46 170.256C309.559 170.919 308.962 171.754 308.67 172.761L300.835 172.125C301.233 170.269 302.015 168.665 303.182 167.312C304.348 165.947 305.853 164.9 307.696 164.17C309.552 163.428 311.7 163.057 314.139 163.057C315.836 163.057 317.46 163.256 319.011 163.653C320.576 164.051 321.961 164.668 323.168 165.503C324.387 166.338 325.348 167.412 326.051 168.724C326.754 170.024 327.105 171.581 327.105 173.398V194H319.071V189.764H318.832C318.342 190.719 317.686 191.561 316.864 192.29C316.042 193.006 315.054 193.569 313.901 193.98C312.747 194.378 311.415 194.577 309.903 194.577ZM312.33 188.73C313.576 188.73 314.676 188.485 315.631 187.994C316.585 187.491 317.334 186.814 317.878 185.966C318.421 185.117 318.693 184.156 318.693 183.082V179.841C318.428 180.013 318.063 180.172 317.599 180.318C317.149 180.451 316.638 180.577 316.068 180.696C315.498 180.802 314.928 180.902 314.358 180.994C313.788 181.074 313.271 181.147 312.807 181.213C311.813 181.359 310.944 181.591 310.202 181.909C309.459 182.227 308.883 182.658 308.472 183.202C308.061 183.732 307.855 184.395 307.855 185.19C307.855 186.344 308.273 187.225 309.108 187.835C309.956 188.432 311.03 188.73 312.33 188.73ZM342.149 153.273V194H333.678V153.273H342.149ZM357.407 153.273V194H348.935V153.273H357.407ZM377.154 194V163.455H385.626V194H377.154ZM381.41 159.517C380.15 159.517 379.07 159.099 378.168 158.264C377.28 157.416 376.836 156.402 376.836 155.222C376.836 154.055 377.28 153.054 378.168 152.219C379.07 151.37 380.15 150.946 381.41 150.946C382.669 150.946 383.743 151.37 384.631 152.219C385.533 153.054 385.984 154.055 385.984 155.222C385.984 156.402 385.533 157.416 384.631 158.264C383.743 159.099 382.669 159.517 381.41 159.517ZM400.884 176.341V194H392.412V163.455H400.486V168.844H400.844C401.52 167.067 402.653 165.662 404.244 164.628C405.835 163.58 407.764 163.057 410.031 163.057C412.152 163.057 414.002 163.521 415.58 164.449C417.157 165.377 418.384 166.703 419.259 168.426C420.134 170.136 420.571 172.178 420.571 174.551V194H412.099V176.062C412.113 174.193 411.635 172.735 410.668 171.688C409.7 170.627 408.367 170.097 406.67 170.097C405.53 170.097 404.523 170.342 403.648 170.832C402.786 171.323 402.11 172.039 401.619 172.98C401.142 173.908 400.897 175.028 400.884 176.341Z" fill="#010816"/>
<path d="M267.068 31.5312H258.358C258.199 30.4044 257.874 29.4034 257.384 28.5284C256.893 27.6401 256.263 26.8845 255.494 26.2614C254.725 25.6383 253.837 25.161 252.83 24.8295C251.835 24.4981 250.755 24.3324 249.588 24.3324C247.48 24.3324 245.644 24.8561 244.08 25.9034C242.515 26.9375 241.302 28.4489 240.44 30.4375C239.579 32.4129 239.148 34.8125 239.148 37.6364C239.148 40.5398 239.579 42.9792 240.44 44.9545C241.315 46.9299 242.535 48.4214 244.099 49.429C245.664 50.4366 247.473 50.9403 249.528 50.9403C250.682 50.9403 251.749 50.7879 252.73 50.483C253.724 50.178 254.606 49.7339 255.375 49.1506C256.144 48.554 256.78 47.8314 257.284 46.983C257.801 46.1345 258.159 45.1667 258.358 44.0795L267.068 44.1193C266.843 45.9886 266.279 47.7917 265.378 49.5284C264.49 51.2519 263.29 52.7964 261.778 54.1619C260.28 55.5142 258.491 56.5881 256.409 57.3835C254.341 58.1657 252.001 58.5568 249.389 58.5568C245.757 58.5568 242.509 57.7348 239.645 56.0909C236.795 54.447 234.541 52.0672 232.884 48.9517C231.24 45.8362 230.418 42.0644 230.418 37.6364C230.418 33.1951 231.253 29.4167 232.923 26.3011C234.594 23.1856 236.861 20.8125 239.724 19.1818C242.588 17.5379 245.81 16.7159 249.389 16.7159C251.749 16.7159 253.937 17.0473 255.952 17.7102C257.98 18.3731 259.777 19.3409 261.341 20.6136C262.905 21.8731 264.178 23.4176 265.159 25.2472C266.153 27.0767 266.79 29.1714 267.068 31.5312ZM286.885 58.5966C283.796 58.5966 281.125 57.9403 278.871 56.6278C276.63 55.3021 274.9 53.4593 273.68 51.0994C272.461 48.7263 271.851 45.9754 271.851 42.8466C271.851 39.6913 272.461 36.9337 273.68 34.5739C274.9 32.2008 276.63 30.358 278.871 29.0455C281.125 27.7197 283.796 27.0568 286.885 27.0568C289.974 27.0568 292.639 27.7197 294.879 29.0455C297.133 30.358 298.87 32.2008 300.089 34.5739C301.309 36.9337 301.919 39.6913 301.919 42.8466C301.919 45.9754 301.309 48.7263 300.089 51.0994C298.87 53.4593 297.133 55.3021 294.879 56.6278C292.639 57.9403 289.974 58.5966 286.885 58.5966ZM286.925 52.0341C288.33 52.0341 289.503 51.6364 290.445 50.8409C291.386 50.0322 292.095 48.9318 292.572 47.5398C293.063 46.1477 293.308 44.5634 293.308 42.7869C293.308 41.0104 293.063 39.4261 292.572 38.0341C292.095 36.642 291.386 35.5417 290.445 34.733C289.503 33.9242 288.33 33.5199 286.925 33.5199C285.506 33.5199 284.313 33.9242 283.345 34.733C282.391 35.5417 281.668 36.642 281.178 38.0341C280.7 39.4261 280.462 41.0104 280.462 42.7869C280.462 44.5634 280.7 46.1477 281.178 47.5398C281.668 48.9318 282.391 50.0322 283.345 50.8409C284.313 51.6364 285.506 52.0341 286.925 52.0341ZM315.899 40.3409V58H307.428V27.4545H315.501V32.8438H315.859C316.536 31.0672 317.669 29.6619 319.26 28.6278C320.851 27.5805 322.78 27.0568 325.047 27.0568C327.168 27.0568 329.018 27.5208 330.595 28.4489C332.173 29.3769 333.399 30.7027 334.274 32.4261C335.149 34.1364 335.587 36.178 335.587 38.5511V58H327.115V40.0625C327.128 38.1932 326.651 36.7348 325.683 35.6875C324.715 34.6269 323.383 34.0966 321.686 34.0966C320.546 34.0966 319.538 34.3419 318.663 34.8324C317.802 35.3229 317.125 36.0388 316.635 36.9801C316.158 37.9081 315.912 39.0284 315.899 40.3409ZM369.647 27.4545L358.968 58H349.423L338.744 27.4545H347.692L354.036 49.3097H354.354L360.678 27.4545H369.647ZM386.918 58.5966C383.776 58.5966 381.072 57.9602 378.805 56.6875C376.551 55.4015 374.814 53.5852 373.594 51.2386C372.375 48.8788 371.765 46.0881 371.765 42.8665C371.765 39.7244 372.375 36.9669 373.594 34.5938C374.814 32.2206 376.531 30.3712 378.745 29.0455C380.972 27.7197 383.584 27.0568 386.58 27.0568C388.595 27.0568 390.471 27.3816 392.208 28.0312C393.958 28.6676 395.483 29.6288 396.782 30.9148C398.094 32.2008 399.115 33.8182 399.844 35.767C400.574 37.7027 400.938 39.9697 400.938 42.5682V44.8949H375.146V39.6449H392.964C392.964 38.4252 392.699 37.3447 392.168 36.4034C391.638 35.4621 390.902 34.7263 389.961 34.196C389.033 33.6525 387.952 33.3807 386.719 33.3807C385.433 33.3807 384.293 33.679 383.299 34.2756C382.318 34.8589 381.549 35.6477 380.992 36.642C380.435 37.6231 380.15 38.7169 380.137 39.9233V44.9148C380.137 46.4261 380.415 47.732 380.972 48.8324C381.542 49.9328 382.344 50.7812 383.379 51.3778C384.413 51.9744 385.639 52.2727 387.058 52.2727C387.999 52.2727 388.861 52.1402 389.643 51.875C390.425 51.6098 391.094 51.2121 391.651 50.6818C392.208 50.1515 392.632 49.5019 392.924 48.733L400.759 49.25C400.362 51.1326 399.546 52.7765 398.313 54.1818C397.094 55.5739 395.516 56.661 393.58 57.4432C391.658 58.2121 389.437 58.5966 386.918 58.5966ZM406.467 58V27.4545H414.68V32.7841H414.998C415.555 30.8883 416.489 29.4564 417.802 28.4886C419.114 27.5076 420.626 27.017 422.336 27.017C422.76 27.017 423.218 27.0436 423.708 27.0966C424.199 27.1496 424.629 27.2225 425.001 27.3153V34.8324C424.603 34.7131 424.053 34.607 423.35 34.5142C422.647 34.4214 422.004 34.375 421.421 34.375C420.175 34.375 419.061 34.6468 418.08 35.1903C417.112 35.7206 416.344 36.4631 415.773 37.4176C415.217 38.3722 414.938 39.4725 414.938 40.7188V58H406.467ZM454.795 36.1648L447.04 36.642C446.907 35.9792 446.622 35.3826 446.185 34.8523C445.747 34.3087 445.17 33.8778 444.455 33.5597C443.752 33.2282 442.91 33.0625 441.929 33.0625C440.616 33.0625 439.509 33.3409 438.608 33.8977C437.706 34.4413 437.256 35.1705 437.256 36.0852C437.256 36.8144 437.547 37.4309 438.131 37.9347C438.714 38.4384 439.715 38.8428 441.134 39.1477L446.662 40.2614C449.632 40.8712 451.846 41.8523 453.304 43.2045C454.762 44.5568 455.491 46.3333 455.491 48.5341C455.491 50.536 454.902 52.2926 453.722 53.804C452.555 55.3153 450.951 56.4953 448.909 57.3438C446.881 58.179 444.541 58.5966 441.889 58.5966C437.846 58.5966 434.624 57.7547 432.224 56.071C429.838 54.3741 428.439 52.0672 428.028 49.1506L436.361 48.7131C436.613 49.946 437.223 50.8873 438.19 51.5369C439.158 52.1733 440.398 52.4915 441.909 52.4915C443.394 52.4915 444.587 52.2064 445.489 51.6364C446.403 51.053 446.867 50.304 446.881 49.3892C446.867 48.6203 446.543 47.9905 445.906 47.5C445.27 46.9962 444.289 46.6117 442.963 46.3466L437.673 45.2926C434.69 44.696 432.47 43.6619 431.011 42.1903C429.566 40.7187 428.844 38.8428 428.844 36.5625C428.844 34.6004 429.374 32.91 430.435 31.4915C431.509 30.0729 433.013 28.9792 434.949 28.2102C436.898 27.4413 439.178 27.0568 441.79 27.0568C445.648 27.0568 448.684 27.8722 450.898 29.5028C453.125 31.1335 454.424 33.3542 454.795 36.1648ZM469.536 58.5767C467.587 58.5767 465.851 58.2386 464.326 57.5625C462.801 56.8731 461.595 55.8589 460.707 54.5199C459.832 53.1676 459.394 51.4839 459.394 49.4688C459.394 47.7718 459.706 46.3466 460.329 45.1932C460.952 44.0398 461.8 43.1117 462.874 42.4091C463.948 41.7064 465.168 41.1761 466.533 40.8182C467.912 40.4602 469.357 40.2083 470.869 40.0625C472.645 39.8769 474.077 39.7045 475.164 39.5455C476.251 39.3731 477.04 39.1212 477.531 38.7898C478.021 38.4583 478.266 37.9678 478.266 37.3182V37.1989C478.266 35.9394 477.869 34.965 477.073 34.2756C476.291 33.5862 475.177 33.2415 473.732 33.2415C472.208 33.2415 470.995 33.5795 470.093 34.2557C469.192 34.9186 468.595 35.7538 468.303 36.7614L460.468 36.125C460.866 34.2689 461.648 32.6648 462.815 31.3125C463.981 29.947 465.486 28.8996 467.329 28.1705C469.185 27.428 471.333 27.0568 473.772 27.0568C475.469 27.0568 477.093 27.2557 478.644 27.6534C480.209 28.0511 481.594 28.6676 482.8 29.5028C484.02 30.3381 484.981 31.4119 485.684 32.7244C486.387 34.0237 486.738 35.5814 486.738 37.3977V58H478.704V53.7642H478.465C477.975 54.7188 477.318 55.5606 476.496 56.2898C475.674 57.0057 474.687 57.5691 473.533 57.9801C472.38 58.3778 471.048 58.5767 469.536 58.5767ZM471.962 52.7301C473.209 52.7301 474.309 52.4848 475.263 51.9943C476.218 51.4905 476.967 50.8144 477.511 49.9659C478.054 49.1174 478.326 48.1562 478.326 47.0824V43.8409C478.061 44.0133 477.696 44.1723 477.232 44.3182C476.781 44.4508 476.271 44.5767 475.701 44.696C475.131 44.8021 474.561 44.9015 473.991 44.9943C473.421 45.0739 472.904 45.1468 472.44 45.2131C471.445 45.3589 470.577 45.5909 469.835 45.9091C469.092 46.2273 468.515 46.6581 468.104 47.2017C467.693 47.732 467.488 48.3949 467.488 49.1903C467.488 50.3438 467.906 51.2254 468.741 51.8352C469.589 52.4318 470.663 52.7301 471.962 52.7301ZM509.558 27.4545V33.8182H491.163V27.4545H509.558ZM495.339 20.1364H503.81V48.6136C503.81 49.3958 503.93 50.0057 504.168 50.4432C504.407 50.8674 504.738 51.1657 505.163 51.3381C505.6 51.5104 506.104 51.5966 506.674 51.5966C507.072 51.5966 507.469 51.5634 507.867 51.4972C508.265 51.4176 508.57 51.358 508.782 51.3182L510.114 57.6222C509.69 57.7547 509.094 57.9072 508.325 58.0795C507.556 58.2652 506.621 58.3778 505.521 58.4176C503.479 58.4972 501.689 58.2254 500.151 57.6023C498.627 56.9792 497.44 56.0114 496.592 54.6989C495.743 53.3864 495.326 51.7292 495.339 49.7273V20.1364ZM515.076 58V27.4545H523.548V58H515.076ZM519.332 23.517C518.072 23.517 516.992 23.0994 516.09 22.2642C515.202 21.4157 514.758 20.4015 514.758 19.2216C514.758 18.0549 515.202 17.054 516.09 16.2188C516.992 15.3703 518.072 14.946 519.332 14.946C520.591 14.946 521.665 15.3703 522.553 16.2188C523.455 17.054 523.906 18.0549 523.906 19.2216C523.906 20.4015 523.455 21.4157 522.553 22.2642C521.665 23.0994 520.591 23.517 519.332 23.517ZM544.135 58.5966C541.046 58.5966 538.375 57.9403 536.121 56.6278C533.88 55.3021 532.15 53.4593 530.93 51.0994C529.711 48.7263 529.101 45.9754 529.101 42.8466C529.101 39.6913 529.711 36.9337 530.93 34.5739C532.15 32.2008 533.88 30.358 536.121 29.0455C538.375 27.7197 541.046 27.0568 544.135 27.0568C547.224 27.0568 549.889 27.7197 552.129 29.0455C554.383 30.358 556.12 32.2008 557.339 34.5739C558.559 36.9337 559.169 39.6913 559.169 42.8466C559.169 45.9754 558.559 48.7263 557.339 51.0994C556.12 53.4593 554.383 55.3021 552.129 56.6278C549.889 57.9403 547.224 58.5966 544.135 58.5966ZM544.175 52.0341C545.58 52.0341 546.753 51.6364 547.695 50.8409C548.636 50.0322 549.345 48.9318 549.822 47.5398C550.313 46.1477 550.558 44.5634 550.558 42.7869C550.558 41.0104 550.313 39.4261 549.822 38.0341C549.345 36.642 548.636 35.5417 547.695 34.733C546.753 33.9242 545.58 33.5199 544.175 33.5199C542.756 33.5199 541.563 33.9242 540.595 34.733C539.641 35.5417 538.918 36.642 538.428 38.0341C537.95 39.4261 537.712 41.0104 537.712 42.7869C537.712 44.5634 537.95 46.1477 538.428 47.5398C538.918 48.9318 539.641 50.0322 540.595 50.8409C541.563 51.6364 542.756 52.0341 544.175 52.0341ZM573.149 40.3409V58H564.678V27.4545H572.751V32.8438H573.109C573.786 31.0672 574.919 29.6619 576.51 28.6278C578.101 27.5805 580.03 27.0568 582.297 27.0568C584.418 27.0568 586.268 27.5208 587.845 28.4489C589.423 29.3769 590.649 30.7027 591.524 32.4261C592.399 34.1364 592.837 36.178 592.837 38.5511V58H584.365V40.0625C584.378 38.1932 583.901 36.7348 582.933 35.6875C581.965 34.6269 580.633 34.0966 578.936 34.0966C577.796 34.0966 576.788 34.3419 575.913 34.8324C575.052 35.3229 574.375 36.0388 573.885 36.9801C573.408 37.9081 573.162 39.0284 573.149 40.3409Z" fill="white"/>
<path d="M457.848 153.273V194H449.237V161.446H448.999L439.672 167.293V159.656L449.754 153.273H457.848ZM462.846 153.273V194H454.236V161.446H453.997L444.67 167.293V159.656L454.753 153.273H462.846Z" fill="#06AB2A"/>
<path d="M476.287 194V153.273H492.593C495.59 153.273 498.089 153.717 500.091 154.605C502.093 155.493 503.597 156.726 504.605 158.304C505.612 159.868 506.116 161.671 506.116 163.713C506.116 165.304 505.798 166.703 505.162 167.909C504.525 169.102 503.65 170.083 502.537 170.852C501.436 171.608 500.177 172.145 498.758 172.463V172.861C500.309 172.927 501.761 173.365 503.113 174.173C504.479 174.982 505.586 176.116 506.434 177.574C507.283 179.019 507.707 180.742 507.707 182.744C507.707 184.905 507.17 186.834 506.096 188.531C505.036 190.215 503.465 191.547 501.383 192.528C499.302 193.509 496.736 194 493.687 194H476.287ZM484.897 186.96H491.917C494.317 186.96 496.067 186.503 497.167 185.588C498.268 184.66 498.818 183.427 498.818 181.889C498.818 180.762 498.546 179.768 498.003 178.906C497.459 178.045 496.683 177.368 495.676 176.878C494.682 176.387 493.495 176.142 492.116 176.142H484.897V186.96ZM484.897 170.315H491.281C492.461 170.315 493.508 170.11 494.423 169.699C495.351 169.275 496.08 168.678 496.611 167.909C497.154 167.14 497.426 166.219 497.426 165.145C497.426 163.673 496.902 162.487 495.855 161.585C494.821 160.684 493.349 160.233 491.44 160.233H484.897V170.315ZM526.952 194.597C523.863 194.597 521.192 193.94 518.938 192.628C516.697 191.302 514.967 189.459 513.748 187.099C512.528 184.726 511.918 181.975 511.918 178.847C511.918 175.691 512.528 172.934 513.748 170.574C514.967 168.201 516.697 166.358 518.938 165.045C521.192 163.72 523.863 163.057 526.952 163.057C530.041 163.057 532.706 163.72 534.946 165.045C537.2 166.358 538.937 168.201 540.157 170.574C541.376 172.934 541.986 175.691 541.986 178.847C541.986 181.975 541.376 184.726 540.157 187.099C538.937 189.459 537.2 191.302 534.946 192.628C532.706 193.94 530.041 194.597 526.952 194.597ZM526.992 188.034C528.397 188.034 529.571 187.636 530.512 186.841C531.453 186.032 532.162 184.932 532.64 183.54C533.13 182.148 533.375 180.563 533.375 178.787C533.375 177.01 533.13 175.426 532.64 174.034C532.162 172.642 531.453 171.542 530.512 170.733C529.571 169.924 528.397 169.52 526.992 169.52C525.573 169.52 524.38 169.924 523.412 170.733C522.458 171.542 521.735 172.642 521.245 174.034C520.767 175.426 520.529 177.01 520.529 178.787C520.529 180.563 520.767 182.148 521.245 183.54C521.735 184.932 522.458 186.032 523.412 186.841C524.38 187.636 525.573 188.034 526.992 188.034ZM563.742 163.455V169.818H545.347V163.455H563.742ZM549.523 156.136H557.995V184.614C557.995 185.396 558.114 186.006 558.353 186.443C558.591 186.867 558.923 187.166 559.347 187.338C559.785 187.51 560.288 187.597 560.858 187.597C561.256 187.597 561.654 187.563 562.052 187.497C562.449 187.418 562.754 187.358 562.966 187.318L564.299 193.622C563.874 193.755 563.278 193.907 562.509 194.08C561.74 194.265 560.805 194.378 559.705 194.418C557.663 194.497 555.874 194.225 554.336 193.602C552.811 192.979 551.624 192.011 550.776 190.699C549.928 189.386 549.51 187.729 549.523 185.727V156.136Z" fill="#0748D3"/>
</svg>
