<svg width="256" height="31" viewBox="0 0 256 31" fill="none" xmlns="http://www.w3.org/2000/svg">
<path d="M0.528409 30V0.90909H6.67898V12.9119H19.1648V0.90909H25.3011V30H19.1648V17.983H6.67898V30H0.528409ZM40.1165 30.4261C37.91 30.4261 36.0019 29.9574 34.392 29.0199C32.7917 28.0729 31.5559 26.7566 30.6847 25.071C29.8134 23.3759 29.3778 21.411 29.3778 19.1761C29.3778 16.9223 29.8134 14.9527 30.6847 13.267C31.5559 11.572 32.7917 10.2557 34.392 9.31818C36.0019 8.37121 37.91 7.89773 40.1165 7.89773C42.3229 7.89773 44.2263 8.37121 45.8267 9.31818C47.4366 10.2557 48.6771 11.572 49.5483 13.267C50.4195 14.9527 50.8551 16.9223 50.8551 19.1761C50.8551 21.411 50.4195 23.3759 49.5483 25.071C48.6771 26.7566 47.4366 28.0729 45.8267 29.0199C44.2263 29.9574 42.3229 30.4261 40.1165 30.4261ZM40.1449 25.7386C41.1487 25.7386 41.9867 25.4545 42.6591 24.8864C43.3314 24.3087 43.8381 23.5227 44.179 22.5284C44.5294 21.5341 44.7045 20.4025 44.7045 19.1335C44.7045 17.8646 44.5294 16.733 44.179 15.7386C43.8381 14.7443 43.3314 13.9583 42.6591 13.3807C41.9867 12.803 41.1487 12.5142 40.1449 12.5142C39.1316 12.5142 38.2794 12.803 37.5881 13.3807C36.9063 13.9583 36.3902 14.7443 36.0398 15.7386C35.6989 16.733 35.5284 17.8646 35.5284 19.1335C35.5284 20.4025 35.6989 21.5341 36.0398 22.5284C36.3902 23.5227 36.9063 24.3087 37.5881 24.8864C38.2794 25.4545 39.1316 25.7386 40.1449 25.7386ZM58.5469 30L52.6094 8.18182H58.7315L62.1122 22.8409H62.3111L65.8338 8.18182H71.8423L75.4219 22.7557H75.6065L78.9304 8.18182H85.0384L79.1151 30H72.7088L68.9588 16.2784H68.6889L64.9389 30H58.5469ZM103.788 0.90909V30H97.6378V0.90909H103.788ZM120.34 8.18182V12.7273H107.201V8.18182H120.34ZM110.184 2.95455H116.235V23.2955C116.235 23.8542 116.32 24.2898 116.491 24.6023C116.661 24.9053 116.898 25.1184 117.201 25.2415C117.513 25.3646 117.873 25.4261 118.281 25.4261C118.565 25.4261 118.849 25.4025 119.133 25.3551C119.417 25.2983 119.635 25.2557 119.786 25.2273L120.738 29.7301C120.435 29.8248 120.009 29.9337 119.46 30.0568C118.91 30.1894 118.243 30.2699 117.457 30.2983C115.998 30.3551 114.72 30.161 113.621 29.7159C112.532 29.2708 111.685 28.5795 111.079 27.642C110.473 26.7045 110.174 25.5208 110.184 24.0909V2.95455ZM140.202 30L131.878 0.90909H138.597L143.412 21.1222H143.653L148.966 0.90909H154.719L160.017 21.1648H160.273L165.088 0.90909H171.807L163.483 30H157.489L151.949 10.9801H151.722L146.196 30H140.202ZM182.499 30.4261C180.293 30.4261 178.385 29.9574 176.775 29.0199C175.174 28.0729 173.939 26.7566 173.067 25.071C172.196 23.3759 171.761 21.411 171.761 19.1761C171.761 16.9223 172.196 14.9527 173.067 13.267C173.939 11.572 175.174 10.2557 176.775 9.31818C178.385 8.37121 180.293 7.89773 182.499 7.89773C184.706 7.89773 186.609 8.37121 188.21 9.31818C189.819 10.2557 191.06 11.572 191.931 13.267C192.802 14.9527 193.238 16.9223 193.238 19.1761C193.238 21.411 192.802 23.3759 191.931 25.071C191.06 26.7566 189.819 28.0729 188.21 29.0199C186.609 29.9574 184.706 30.4261 182.499 30.4261ZM182.528 25.7386C183.531 25.7386 184.37 25.4545 185.042 24.8864C185.714 24.3087 186.221 23.5227 186.562 22.5284C186.912 21.5341 187.087 20.4025 187.087 19.1335C187.087 17.8646 186.912 16.733 186.562 15.7386C186.221 14.7443 185.714 13.9583 185.042 13.3807C184.37 12.803 183.531 12.5142 182.528 12.5142C181.514 12.5142 180.662 12.803 179.971 13.3807C179.289 13.9583 178.773 14.7443 178.423 15.7386C178.082 16.733 177.911 17.8646 177.911 19.1335C177.911 20.4025 178.082 21.5341 178.423 22.5284C178.773 23.5227 179.289 24.3087 179.971 24.8864C180.662 25.4545 181.514 25.7386 182.528 25.7386ZM197.173 30V8.18182H203.039V11.9886H203.266C203.664 10.6345 204.332 9.61174 205.269 8.92045C206.207 8.2197 207.286 7.86932 208.508 7.86932C208.811 7.86932 209.138 7.88826 209.488 7.92614C209.838 7.96402 210.146 8.0161 210.411 8.08239V13.4517C210.127 13.3665 209.734 13.2907 209.232 13.2244C208.73 13.1581 208.271 13.125 207.854 13.125C206.964 13.125 206.169 13.3191 205.468 13.7074C204.777 14.0862 204.228 14.6165 203.82 15.2983C203.423 15.9801 203.224 16.7661 203.224 17.6562V30H197.173ZM219.023 23.7216L219.037 16.4631H219.918L226.906 8.18182H233.852L224.463 19.1477H223.028L219.023 23.7216ZM213.54 30V0.90909H219.591V30H213.54ZM227.176 30L220.756 20.4972L224.79 16.2216L234.264 30H227.176ZM254.974 14.4034L249.435 14.7443C249.34 14.2708 249.136 13.8447 248.824 13.4659C248.511 13.0777 248.099 12.7699 247.588 12.5426C247.086 12.3059 246.485 12.1875 245.784 12.1875C244.847 12.1875 244.056 12.3864 243.412 12.7841C242.768 13.1723 242.446 13.6932 242.446 14.3466C242.446 14.8674 242.654 15.3078 243.071 15.6676C243.488 16.0275 244.203 16.3163 245.216 16.5341L249.165 17.3295C251.286 17.7652 252.867 18.4659 253.909 19.4318C254.951 20.3977 255.472 21.6667 255.472 23.2386C255.472 24.6686 255.05 25.9233 254.207 27.0028C253.374 28.0824 252.228 28.9252 250.77 29.5312C249.321 30.1278 247.65 30.4261 245.756 30.4261C242.867 30.4261 240.566 29.8248 238.852 28.6222C237.148 27.41 236.149 25.7623 235.855 23.679L241.807 23.3665C241.987 24.2472 242.422 24.9195 243.114 25.3835C243.805 25.8381 244.69 26.0653 245.77 26.0653C246.83 26.0653 247.683 25.8617 248.327 25.4545C248.98 25.0379 249.312 24.5028 249.321 23.8494C249.312 23.3002 249.08 22.8504 248.625 22.5C248.17 22.1402 247.47 21.8655 246.523 21.6761L242.744 20.9233C240.614 20.4972 239.027 19.7585 237.986 18.7074C236.954 17.6562 236.438 16.3163 236.438 14.6875C236.438 13.286 236.816 12.0786 237.574 11.0653C238.341 10.0521 239.416 9.27083 240.798 8.72159C242.19 8.17235 243.819 7.89773 245.685 7.89773C248.44 7.89773 250.609 8.48011 252.19 9.64489C253.781 10.8097 254.709 12.3958 254.974 14.4034Z" fill="#0748D3"/>
</svg>
