<svg width="111" height="22" viewBox="0 0 111 22" fill="none" xmlns="http://www.w3.org/2000/svg">
<path d="M1.41992 19.5371C0.854818 19.1087 0.718099 18.6758 1.00977 18.2383L2.0625 16.6523C2.40885 16.1328 2.91471 16.1055 3.58008 16.5703C4.09049 16.9258 4.75586 17.2949 5.57617 17.6777C6.4056 18.0514 7.27604 18.2383 8.1875 18.2383C8.82552 18.2383 9.44076 18.1654 10.0332 18.0195C10.6257 17.8737 11.0768 17.5911 11.3867 17.1719C11.6966 16.7526 11.8516 16.2559 11.8516 15.6816C11.8516 15.2715 11.7832 14.9115 11.6465 14.6016C11.5098 14.2917 11.2865 14.0365 10.9766 13.8359C10.6667 13.6354 10.3477 13.4668 10.0195 13.3301C9.44531 13.0931 8.7207 12.8607 7.8457 12.6328C6.97982 12.3958 6.12305 12.1133 5.27539 11.7852C4.51888 11.4935 3.82617 11.0924 3.19727 10.582C2.56836 10.0716 2.08073 9.4974 1.73438 8.85938C1.38802 8.22135 1.21484 7.36914 1.21484 6.30273C1.21484 5.03581 1.625 3.95117 2.44531 3.04883C3.26562 2.14648 4.20898 1.56771 5.27539 1.3125C6.3418 1.05729 7.41732 0.929688 8.50195 0.929688C9.57747 0.929688 10.6849 1.09375 11.8242 1.42188C12.9727 1.75 13.8385 2.16016 14.4219 2.65234C14.9961 3.13542 15.1374 3.57292 14.8457 3.96484L13.7383 5.45508C13.3646 5.96549 12.8633 6.00651 12.2344 5.57812C11.8333 5.30469 11.2819 4.99935 10.5801 4.66211C9.88737 4.32487 9.16276 4.15625 8.40625 4.15625C7.86849 4.15625 7.37174 4.20182 6.91602 4.29297C6.4694 4.38411 6.07292 4.60286 5.72656 4.94922C5.38021 5.29557 5.20703 5.72396 5.20703 6.23438C5.20703 6.72656 5.33464 7.1276 5.58984 7.4375C5.84505 7.73828 6.1276 7.96615 6.4375 8.12109C6.7474 8.26693 7.06185 8.38997 7.38086 8.49023C8.36523 8.80924 9.24479 9.0918 10.0195 9.33789C10.7943 9.57487 11.5098 9.83919 12.166 10.1309C13.0775 10.541 13.7747 10.9512 14.2578 11.3613C14.7409 11.7715 15.1374 12.332 15.4473 13.043C15.7663 13.7539 15.9258 14.6016 15.9258 15.5859C15.9258 17.0443 15.4609 18.252 14.5312 19.209C13.6016 20.1569 12.5671 20.7676 11.4277 21.041C10.2975 21.3236 9.19466 21.4648 8.11914 21.4648C6.5332 21.4648 5.24349 21.3099 4.25 21C3.25651 20.6992 2.31315 20.2116 1.41992 19.5371ZM17.9766 17.1719C17.9766 15.349 18.847 14.0273 20.5879 13.207C22.3288 12.3867 24.3158 11.9492 26.5488 11.8945V11.3477C26.5488 10.5091 26.3392 9.91667 25.9199 9.57031C25.5007 9.22396 24.9173 9.05078 24.1699 9.05078C23.6413 9.05078 23.1719 9.12826 22.7617 9.2832C22.3607 9.42904 22.0098 9.60221 21.709 9.80273C21.4173 9.99414 21.153 10.1901 20.916 10.3906C20.4967 10.7552 20.1504 10.7734 19.877 10.4453L18.7422 9.05078C18.4596 8.70443 18.528 8.34896 18.9473 7.98438C19.2663 7.70182 19.6354 7.45573 20.0547 7.24609C20.4831 7.03646 21.0482 6.84049 21.75 6.6582C22.4518 6.4668 23.3633 6.37109 24.4844 6.37109C26.3802 6.37109 27.834 6.80859 28.8457 7.68359C29.8665 8.55859 30.377 9.84831 30.377 11.5527V20.1797C30.377 20.7266 30.1035 21 29.5566 21H27.3145C26.8223 21 26.5762 20.7266 26.5762 20.1797V19.7695H26.5488C26.0111 20.2891 25.3639 20.6719 24.6074 20.918C23.86 21.1549 23.1719 21.2734 22.543 21.2734C21.0482 21.2734 19.9134 20.9089 19.1387 20.1797C18.3639 19.4414 17.9766 18.4388 17.9766 17.1719ZM22.0234 17.0898C22.0234 17.4089 22.0872 17.6868 22.2148 17.9238C22.3424 18.1517 22.543 18.3203 22.8164 18.4297C23.0898 18.5391 23.3952 18.5938 23.7324 18.5938C24.1973 18.5938 24.6484 18.5299 25.0859 18.4023C25.5234 18.2747 26.0111 17.974 26.5488 17.5V14.5332C25.0176 14.7064 23.9922 14.9297 23.4727 15.2031C22.9531 15.4766 22.5794 15.7591 22.3516 16.0508C22.1328 16.3424 22.0234 16.6888 22.0234 17.0898ZM34.9297 21C34.3828 21 34.1094 20.7266 34.1094 20.1797V4.0332C34.1094 3.62305 34.2051 3.24935 34.3965 2.91211L35.4492 1.06641C35.6497 0.720052 35.8867 0.546875 36.1602 0.546875H37.1172C37.6641 0.546875 37.9375 0.820312 37.9375 1.36719V20.1797C37.9375 20.7266 37.6641 21 37.1172 21H34.9297ZM40.8906 13.8223C40.8906 11.5163 41.4648 9.69792 42.6133 8.36719C43.7708 7.03646 45.4023 6.37109 47.5078 6.37109C49.9505 6.37109 51.7643 7 52.9492 8.25781C54.1341 9.51562 54.7266 11.5391 54.7266 14.3281C54.7266 14.875 54.4714 15.1484 53.9609 15.1484H44.9375C45.0833 16.6615 45.457 17.6139 46.0586 18.0059C46.6602 18.3978 47.3574 18.5938 48.1504 18.5938C48.9069 18.5938 49.4857 18.4935 49.8867 18.293C50.2878 18.0924 50.625 17.819 50.8984 17.4727C51.2083 17.0716 51.5911 17.0078 52.0469 17.2812L53.4141 18.1152C53.9518 18.4434 54.0293 18.8353 53.6465 19.291C53.0905 19.9564 52.4388 20.4531 51.6914 20.7812C50.944 21.1094 49.7637 21.2734 48.1504 21.2734C45.5345 21.2734 43.6706 20.6081 42.5586 19.2773C41.4466 17.9466 40.8906 16.1283 40.8906 13.8223ZM44.9512 12.4141H50.8984C50.8984 11.4297 50.6523 10.6276 50.1602 10.0078C49.668 9.37891 48.8841 9.06445 47.8086 9.06445C46.9518 9.06445 46.2728 9.36523 45.7715 9.9668C45.2702 10.5592 44.9967 11.375 44.9512 12.4141ZM57.4199 20.043C56.9733 19.724 56.8503 19.3822 57.0508 19.0176L57.748 17.7461C57.9941 17.2904 58.377 17.2357 58.8965 17.582C59.416 17.9284 60.0267 18.1836 60.7285 18.3477C61.4395 18.5117 62.0866 18.5938 62.6699 18.5938C63.0801 18.5938 63.4629 18.5527 63.8184 18.4707C64.1738 18.3887 64.4746 18.2292 64.7207 17.9922C64.9668 17.7552 65.0898 17.4089 65.0898 16.9531C65.0898 16.6797 65.0169 16.4473 64.8711 16.2559C64.7253 16.0645 64.5384 15.9186 64.3105 15.8184C64.0827 15.7181 63.8411 15.6361 63.5859 15.5723C63.2487 15.4902 62.7611 15.3535 62.123 15.1621C61.4941 14.9707 60.888 14.7474 60.3047 14.4922C59.8216 14.2826 59.3477 13.9909 58.8828 13.6172C58.4271 13.2344 58.0898 12.8105 57.8711 12.3457C57.6615 11.8809 57.5566 11.3066 57.5566 10.623C57.5566 9.70247 57.821 8.89583 58.3496 8.20312C58.8874 7.51042 59.5801 7.0319 60.4277 6.76758C61.2754 6.50326 62.3327 6.37109 63.5996 6.37109C64.4564 6.37109 65.2904 6.49414 66.1016 6.74023C66.9128 6.98633 67.4915 7.21875 67.8379 7.4375C68.3848 7.78385 68.5215 8.15299 68.248 8.54492L67.4141 9.76172C67.1589 10.1263 66.7487 10.1536 66.1836 9.84375C65.7552 9.60677 65.3314 9.41536 64.9121 9.26953C64.502 9.1237 64.0417 9.05078 63.5312 9.05078C63.1849 9.05078 62.8522 9.08724 62.5332 9.16016C62.2142 9.23307 61.9408 9.36979 61.7129 9.57031C61.4941 9.77083 61.3848 10.0352 61.3848 10.3633C61.3848 10.7096 61.485 10.9831 61.6855 11.1836C61.8952 11.375 62.1322 11.5163 62.3965 11.6074C62.6699 11.6986 62.9297 11.7852 63.1758 11.8672C63.6862 12.0312 64.2012 12.1908 64.7207 12.3457C65.2402 12.4915 65.7689 12.6693 66.3066 12.8789C66.7715 13.0612 67.2227 13.321 67.6602 13.6582C68.0977 13.9954 68.4167 14.4238 68.6172 14.9434C68.8177 15.4629 68.918 16.0553 68.918 16.7207C68.918 17.6048 68.6536 18.4251 68.125 19.1816C67.5964 19.9382 66.8991 20.4759 66.0332 20.7949C65.1673 21.1139 64.1602 21.2734 63.0117 21.2734C61.7266 21.2734 60.6328 21.1823 59.7305 21C58.8281 20.8177 58.0579 20.4987 57.4199 20.043ZM70.9824 9.37891C70.4447 9.37891 70.1758 9.15104 70.1758 8.69531V7.32812C70.1758 6.8724 70.4447 6.64453 70.9824 6.64453H71.748V4.73047C71.748 3.05339 72.2266 1.93685 73.1836 1.38086C74.1406 0.82487 75.2799 0.546875 76.6016 0.546875C77.2305 0.546875 77.7682 0.583333 78.2148 0.65625C78.6706 0.729167 79.0716 0.820312 79.418 0.929688C79.7461 1.03906 79.8646 1.26693 79.7734 1.61328L79.3633 3.1582C79.2812 3.45898 79.0716 3.55013 78.7344 3.43164C78.5339 3.35872 78.2513 3.30859 77.8867 3.28125C77.5312 3.24479 77.2487 3.22656 77.0391 3.22656C76.3737 3.22656 75.9635 3.45898 75.8086 3.92383C75.6536 4.38867 75.5762 5.11328 75.5762 6.09766V6.64453H77.3809C77.9186 6.64453 78.1875 6.8724 78.1875 7.32812V8.69531C78.1875 9.15104 77.9186 9.37891 77.3809 9.37891H75.5762V20.1797C75.5762 20.7266 75.3027 21 74.7559 21H72.5684C72.0215 21 71.748 20.7266 71.748 20.1797V9.37891H70.9824ZM97.3555 21C96.5716 21 96.4076 20.6673 96.8633 20.002L101.389 13.4395L97.3965 7.64258C96.9408 6.97721 97.1048 6.64453 97.8887 6.64453H100.473C100.883 6.64453 101.193 6.82682 101.402 7.19141L103.521 10.8828L105.641 7.19141C105.85 6.82682 106.16 6.64453 106.57 6.64453H109.154C109.947 6.64453 110.111 6.97721 109.646 7.64258L105.627 13.4395L110.18 20.002C110.645 20.6673 110.48 21 109.688 21H107.104C106.702 21 106.393 20.8177 106.174 20.4531L103.521 15.9961L100.869 20.4531C100.65 20.8177 100.34 21 99.9395 21H97.3555Z" fill="#0748D3"/>
<path d="M80.0195 13.8223C80.0195 11.498 80.6165 9.67513 81.8105 8.35352C83.0137 7.0319 84.8001 6.37109 87.1699 6.37109C89.5397 6.37109 91.3216 7.0319 92.5156 8.35352C93.7188 9.67513 94.3203 11.498 94.3203 13.8223C94.3203 16.1465 93.7188 17.9694 92.5156 19.291C91.3216 20.6126 89.5397 21.2734 87.1699 21.2734C84.8001 21.2734 83.0137 20.6126 81.8105 19.291C80.6165 17.9694 80.0195 16.1465 80.0195 13.8223ZM84.0664 13.8223C84.0664 15.554 84.3307 16.7845 84.8594 17.5137C85.3971 18.2337 86.1673 18.5938 87.1699 18.5938C88.1725 18.5938 88.9382 18.2337 89.4668 17.5137C90.0046 16.7845 90.2734 15.554 90.2734 13.8223C90.2734 12.0905 90.0046 10.8646 89.4668 10.1445C88.9382 9.41536 88.1725 9.05078 87.1699 9.05078C86.1673 9.05078 85.3971 9.41536 84.8594 10.1445C84.3307 10.8646 84.0664 12.0905 84.0664 13.8223Z" fill="#06AB2A"/>
</svg>
